<svg xmlns="http://www.w3.org/2000/svg" width="1em" height="1em" viewBox="0 0 128 128">
  <path fill="currentColor" fill-rule="evenodd" d="M5.44 45.69c33.94-5 39.99 1.27 58.7 1.65c18.71-.38 24.76-7.65 58.7-1.65c2.12.38 2.33.47 2.69 2.57c.15.93.25 4.86.28 5.79c.07 1.72-.27 1.95-1.98 2.86c-1.49.79-2.18 1.02-2.18 4.16c0 20.7-9.4 27.1-22.03 27.59c-13.35.52-24.21-7.07-28.73-18.72c-6.4-16.46-7.4-16.47-13.8 0C52.58 81.59 42 89.19 28.66 88.67c-12.63-.5-22.03-7.64-22.03-27.59c0-3.14-.69-3.37-2.18-4.16c-1.71-.92-2.06-1.15-1.98-2.87c.04-.93.14-4.86.28-5.79c.36-2.1.57-1.2 2.69-2.57z" clip-rule="evenodd">
</svg>
