<?xml version="1.0" encoding="UTF-8"?>
<svg xmlns="http://www.w3.org/2000/svg"
 width="600" height="502" viewBox="0 0 600 502"
 preserveAspectRatio="xMidYMid meet">
<style>
  path { fill: #fff; }
</style>
<g transform="translate(0.000000,502.000000) scale(0.100000,-0.100000)"
stroke="none">
<path d="M2575 4790 c-1083 -112 -1934 -964 -2046 -2049 -17 -161 -7 -453 21
-611 109 -624 467 -1171 996 -1520 413 -273 921 -406 1404 -370 640 49 1197
334 1606 823 336 401 524 922 524 1452 0 1131 -820 2085 -1945 2260 -122 19
-437 27 -560 15z m414 -165 c171 -11 406 -65 584 -136 710 -283 1207 -910
1323 -1669 21 -138 24 -442 5 -570 -68 -474 -261 -874 -581 -1204 -343 -353
-775 -570 -1260 -631 -161 -21 -450 -16 -600 9 -96 17 -317 72 -338 85 -7 4
45 180 164 551 96 300 185 586 199 635 13 50 28 102 34 118 l11 27 111 -55
c236 -119 495 -258 517 -278 12 -11 49 -69 83 -129 33 -59 70 -113 82 -120 16
-10 81 -13 237 -13 266 1 262 -1 319 118 21 45 62 138 91 206 42 101 51 132
48 165 -6 48 -121 246 -233 401 -40 55 -79 114 -88 130 l-15 31 50 18 c105 37
156 114 178 266 7 52 19 95 31 112 15 21 19 40 17 80 l-3 52 -45 15 c-26 8
-88 14 -150 14 -94 1 -115 -3 -195 -31 -49 -18 -108 -32 -131 -32 l-42 0 -36
93 c-51 130 -111 233 -167 287 l-48 46 69 68 c198 196 330 503 369 858 13 114
14 295 3 302 -11 7 -453 -418 -508 -489 -69 -89 -107 -181 -168 -398 -30 -109
-56 -201 -59 -203 -3 -3 -181 72 -197 83 -2 2 4 16 13 31 33 50 100 187 124
252 80 211 95 521 37 785 -8 39 -18 85 -21 103 l-6 33 49 -5 c27 -3 91 -8 143
-11z m-336 -92 c-111 -110 -172 -186 -240 -300 -87 -148 -147 -317 -174 -498
l-12 -80 -271 -196 c-732 -529 -955 -693 -952 -696 2 -3 68 5 146 16 78 12
146 21 152 21 6 0 -79 -62 -188 -138 -342 -237 -413 -284 -424 -277 -13 8 -13
190 1 331 70 722 503 1360 1144 1686 277 140 581 223 838 227 l79 1 -99 -97z
m-415 -1278 c-2 -11 -322 -338 -720 -733 l-717 -714 -25 82 c-14 44 -26 85
-26 89 0 5 217 211 482 457 265 247 512 477 548 510 36 34 151 141 255 238
l190 176 8 -42 c4 -24 6 -52 5 -63z m935 -472 c111 -25 143 -87 113 -216 -43
-183 -135 -262 -306 -262 -72 0 -92 4 -130 25 -79 45 -120 135 -120 269 0 99
19 138 82 169 84 42 221 48 361 15z m653 -27 c21 -24 24 -37 24 -106 0 -95
-15 -173 -42 -218 -20 -33 -109 -92 -139 -92 -9 0 -39 40 -73 97 -54 90 -58
101 -63 172 -5 84 5 111 48 144 36 26 83 36 158 33 55 -2 67 -6 87 -30z"/>
</g>
</svg>
