<svg width="1020" height="306" viewBox="0 0 1020 306" fill="none" xmlns="http://www.w3.org/2000/svg">
<path d="M160.6 84.26C160.573 84.3015 160.555 84.3486 160.547 84.3979C160.54 84.4471 160.544 84.4974 160.558 84.5451C160.572 84.5928 160.597 84.6367 160.63 84.6739C160.663 84.711 160.704 84.7404 160.75 84.76C174.297 90.6667 184.94 95.51 192.68 99.29C196.387 101.103 199.657 104.287 202.49 108.84C207.843 117.44 211.083 122.57 212.21 124.23C212.28 124.334 212.315 124.457 212.31 124.583C212.304 124.708 212.26 124.828 212.182 124.926C212.104 125.024 211.997 125.095 211.876 125.128C211.755 125.161 211.627 125.155 211.51 125.11C207.157 123.437 203.74 122.233 201.26 121.5C186.7 117.2 170.62 118.82 155.6 121.74C154.582 121.94 153.551 122.04 152.52 122.04H109.39C109.334 122.04 109.28 122.023 109.233 121.992C109.186 121.961 109.15 121.918 109.128 121.867C109.107 121.816 109.101 121.761 109.112 121.708C109.123 121.655 109.15 121.607 109.19 121.57L132.56 98.55C132.669 98.4442 132.751 98.3139 132.799 98.1696C132.848 98.0254 132.862 97.8713 132.84 97.72C132.673 96.48 132.52 95.23 132.38 93.97C128.18 55.8633 140.54 25.2533 169.46 2.13999C169.537 2.07858 169.628 2.03705 169.725 2.01905C169.821 2.00106 169.921 2.00715 170.015 2.03679C170.109 2.06644 170.194 2.11872 170.263 2.18903C170.332 2.25935 170.382 2.34553 170.41 2.43999C173.657 13.1667 175.263 24.4367 175.23 36.25C175.17 53.81 170.293 69.8133 160.6 84.26Z" fill="black"/>
<path d="M132.4 148.49C132.407 148.445 132.398 148.398 132.374 148.359C132.349 148.32 132.312 148.292 132.268 148.278C132.224 148.265 132.177 148.268 132.135 148.286C132.093 148.305 132.059 148.338 132.04 148.38C124.89 162.77 120.59 180.71 132.46 193.54C136.51 197.92 142.24 200.49 148.82 204.27C149.021 204.385 149.176 204.566 149.26 204.781C149.344 204.995 149.351 205.232 149.28 205.45L120.3 295.78C120.232 295.987 120.101 296.167 119.925 296.294C119.749 296.422 119.537 296.49 119.32 296.49H17.72C17.6425 296.49 17.5658 296.475 17.4942 296.445C17.4226 296.415 17.3576 296.372 17.3028 296.317C17.248 296.262 17.2046 296.197 17.1749 296.126C17.1453 296.054 17.13 295.977 17.13 295.9V15.59C17.13 15.4707 17.1774 15.3562 17.2618 15.2718C17.3462 15.1874 17.4607 15.14 17.58 15.14H142.25C142.28 15.1408 142.309 15.1494 142.335 15.1651C142.36 15.1808 142.381 15.203 142.396 15.2294C142.41 15.2558 142.417 15.2855 142.416 15.3154C142.415 15.3454 142.406 15.3746 142.39 15.4L135.53 26.05C135.414 26.2338 135.253 26.3852 135.062 26.4901C134.872 26.595 134.658 26.65 134.44 26.65H28.4C28.3337 26.65 28.2701 26.6774 28.2232 26.7262C28.1763 26.7749 28.15 26.8411 28.15 26.91V156.42C28.1495 156.456 28.1588 156.492 28.1771 156.524C28.1954 156.555 28.2219 156.581 28.2538 156.598C28.2857 156.616 28.3217 156.624 28.3581 156.623C28.3944 156.621 28.4296 156.61 28.46 156.59L69.01 128.5C69.0488 128.475 69.0774 128.439 69.091 128.395C69.1047 128.352 69.1026 128.305 69.0852 128.262C69.0678 128.22 69.0361 128.183 68.9952 128.159C68.9543 128.135 68.9066 128.125 68.86 128.13L47.93 131.2C47.8687 131.208 47.806 131.195 47.7518 131.164C47.6977 131.133 47.6552 131.086 47.6311 131.03C47.607 130.974 47.6026 130.912 47.6187 130.854C47.6348 130.796 47.6705 130.745 47.72 130.71L120.8 75.58C120.829 75.5582 120.863 75.5446 120.9 75.5409C120.936 75.5372 120.972 75.5433 121.005 75.5587C121.038 75.5742 121.066 75.5983 121.086 75.6284C121.107 75.6586 121.118 75.6937 121.12 75.73L121.95 92.94C121.966 93.2485 121.916 93.5567 121.804 93.8445C121.692 94.1324 121.52 94.3932 121.3 94.61L29.17 185.36C28.847 185.68 28.5906 186.059 28.4155 186.477C28.2404 186.894 28.1502 187.34 28.15 187.79V201.62C28.1497 201.657 28.1604 201.694 28.1806 201.725C28.2008 201.756 28.2298 201.781 28.2638 201.796C28.2979 201.81 28.3356 201.815 28.3723 201.809C28.4089 201.802 28.4429 201.785 28.47 201.76C49.3767 181.073 69.3533 161.203 88.4 142.15C90.07 140.47 91.23 140.02 93.74 140.02C115.553 140.053 135.377 140.06 153.21 140.04C153.672 140.036 154.12 140.199 154.474 140.497C154.828 140.796 155.064 141.212 155.14 141.67C157.05 153.07 158.77 164.58 170.87 169.12C179.86 172.49 191.59 171.78 199.64 167.03C208.18 162 211.77 152.63 214.23 143.43C214.254 143.348 214.299 143.273 214.362 143.215C214.425 143.157 214.503 143.117 214.586 143.1C214.669 143.084 214.755 143.091 214.833 143.121C214.912 143.151 214.98 143.202 215.03 143.27C224.717 155.917 231.83 165.137 236.37 170.93C243 179.39 247.83 187.98 252.92 196.58C256.26 202.24 254.37 204.86 251.74 211.04C247.76 220.373 244.953 226.687 243.32 229.98C241.867 232.9 239.263 234.423 235.51 234.55C228.563 234.783 220.293 234.81 210.7 234.63C207.49 234.57 205.68 233.75 204.12 230.87C201.507 226.083 199.433 222.333 197.9 219.62C196.57 217.24 195.47 216.04 192.88 214.68C171.553 203.52 158.077 196.56 152.45 193.8C145.69 190.493 141.323 187.757 139.35 185.59C134.75 180.537 132.25 174.553 131.85 167.64C131.47 160.893 131.653 154.51 132.4 148.49Z" fill="black"/>
<path d="M185.07 26.39L183.47 15.48C183.464 15.4361 183.468 15.3914 183.481 15.3491C183.494 15.3067 183.516 15.2676 183.545 15.2345C183.575 15.2013 183.611 15.1748 183.651 15.1568C183.692 15.1388 183.736 15.1296 183.78 15.13H209.11C209.172 15.1297 209.232 15.1477 209.283 15.1817C209.334 15.2158 209.374 15.2643 209.398 15.3212C209.422 15.378 209.428 15.4406 209.416 15.5009C209.403 15.5613 209.374 15.6167 209.33 15.66L198.26 26.57C198.231 26.5988 198.197 26.6215 198.159 26.6369C198.121 26.6524 198.081 26.6602 198.04 26.66H185.38C185.304 26.6606 185.231 26.6335 185.174 26.5838C185.117 26.534 185.08 26.4651 185.07 26.39Z" fill="black"/>
<path d="M136.11 285.08H278.35C278.432 285.08 278.511 285.047 278.569 284.989C278.627 284.931 278.66 284.852 278.66 284.77V26.96C278.66 26.9193 278.652 26.879 278.636 26.8414C278.621 26.8038 278.598 26.7696 278.569 26.7408C278.54 26.712 278.506 26.6892 278.469 26.6736C278.431 26.658 278.391 26.65 278.35 26.65H235.25C235.168 26.65 235.089 26.6173 235.031 26.5592C234.973 26.5011 234.94 26.4222 234.94 26.34V15.46C234.94 15.3778 234.973 15.2989 235.031 15.2408C235.089 15.1827 235.168 15.15 235.25 15.15H289.39C289.472 15.15 289.551 15.1827 289.609 15.2408C289.667 15.2989 289.7 15.3778 289.7 15.46V296.21C289.7 296.292 289.667 296.371 289.609 296.429C289.551 296.487 289.472 296.52 289.39 296.52H132.64C132.591 296.521 132.543 296.51 132.5 296.488C132.456 296.466 132.418 296.435 132.389 296.396C132.359 296.357 132.34 296.312 132.331 296.264C132.323 296.216 132.326 296.167 132.34 296.12L135.81 285.3C135.829 285.236 135.869 285.18 135.923 285.14C135.977 285.1 136.043 285.079 136.11 285.08Z" fill="black"/>
<path d="M224.4 15.25C224.428 15.226 224.461 15.2101 224.497 15.2039C224.533 15.1977 224.57 15.2015 224.604 15.2149C224.638 15.2283 224.668 15.2508 224.69 15.2799C224.712 15.309 224.726 15.3436 224.73 15.38C227.1 44.77 219.28 70.72 194.95 88.69C194.85 88.7624 194.732 88.807 194.609 88.8193C194.486 88.8316 194.362 88.8111 194.25 88.76L176.22 80.57C176.078 80.5042 175.965 80.3879 175.904 80.2437C175.843 80.0995 175.838 79.9378 175.89 79.79C178.317 73.0833 180.64 66.9433 182.86 61.37C185.5 54.7433 189.36 48.9367 194.44 43.95C203.967 34.59 213.953 25.0233 224.4 15.25Z" fill="black"/>
<path d="M223.48 147.77C219.52 142.59 217.483 139.917 217.37 139.75C214.83 136.05 211.65 138.7 210.54 141.78C210.327 142.353 209.36 145.147 207.64 150.16C204.187 160.24 197.123 165.81 186.45 166.87C181.077 167.403 176.113 166.767 171.56 164.96C162.19 161.25 160.91 150.79 159.51 142.28C158.72 137.46 156.77 135.81 151.65 135.91C148.863 135.97 130.107 135.993 95.38 135.98C95.3156 135.982 95.2523 135.964 95.1982 135.929C95.1442 135.893 95.102 135.843 95.0772 135.784C95.0523 135.724 95.046 135.659 95.059 135.595C95.072 135.532 95.1037 135.475 95.15 135.43L103.87 126.84C104.37 126.346 105.041 126.07 105.74 126.07H153.54C154.684 126.07 155.823 125.949 156.94 125.71C172.87 122.26 190.23 121.5 205.59 127.24C209.98 128.88 214.58 130.01 217.77 128.79C220.59 127.71 222.59 126.96 223.77 126.54C231.69 123.713 239.86 123.573 248.28 126.12C248.748 126.262 249.158 126.55 249.45 126.942C249.742 127.335 249.899 127.811 249.9 128.3V133.44C249.9 133.72 249.813 133.995 249.65 134.23C248.15 136.383 247.337 137.803 247.21 138.49C245.57 147.16 245.81 159.14 235.73 162.87C235.591 162.921 235.44 162.927 235.3 162.885C235.159 162.844 235.036 162.758 234.95 162.64L232.78 159.76C232.748 159.717 232.727 159.666 232.719 159.613C232.711 159.56 232.716 159.506 232.734 159.456C232.752 159.406 232.782 159.362 232.822 159.328C232.861 159.294 232.909 159.27 232.96 159.26C237.06 158.353 239.727 155.583 240.96 150.95C242.427 145.45 242.93 140.163 242.47 135.09C242.143 131.517 240.243 129.557 236.77 129.21C228.47 128.37 221.19 130.58 222.42 140.9C222.653 142.88 223.097 145.127 223.75 147.64C223.765 147.675 223.766 147.715 223.752 147.751C223.739 147.788 223.712 147.817 223.677 147.834C223.642 147.85 223.602 147.853 223.566 147.841C223.529 147.829 223.498 147.804 223.48 147.77ZM200.58 153.29C203.79 147.62 208.46 133.06 198.9 130.1C190.687 127.553 182.527 127.25 174.42 129.19C168.7 130.55 166.26 133.41 165.81 139.02C165.1 147.79 166.96 159.12 176.89 161.62C185.71 163.84 195.86 161.64 200.58 153.29Z" fill="black"/>
<path d="M870.8 115.14L821.48 172.51C821.386 172.617 821.333 172.754 821.327 172.898C821.322 173.041 821.365 173.183 821.45 173.3L872.96 241.58C872.994 241.621 873.016 241.67 873.023 241.722C873.029 241.773 873.021 241.826 872.997 241.872C872.974 241.918 872.938 241.957 872.892 241.983C872.846 242.009 872.794 242.022 872.74 242.02H831.77C831.37 242.02 830.975 241.926 830.617 241.748C830.26 241.569 829.949 241.309 829.71 240.99L787.8 185.43C787.787 185.413 787.77 185.401 787.75 185.395C787.73 185.388 787.708 185.388 787.688 185.395C787.668 185.402 787.651 185.415 787.639 185.432C787.627 185.449 787.62 185.469 787.62 185.49V241.54C787.62 241.662 787.572 241.779 787.485 241.865C787.399 241.952 787.282 242 787.16 242H751.53C751.424 242 751.322 241.958 751.247 241.883C751.172 241.808 751.13 241.706 751.13 241.6V60.03C751.13 59.9213 751.173 59.817 751.25 59.7401C751.327 59.6632 751.431 59.62 751.54 59.62H787.24C787.341 59.62 787.437 59.6611 787.509 59.7342C787.58 59.8074 787.62 59.9066 787.62 60.01V164.09C787.621 164.132 787.635 164.174 787.66 164.208C787.685 164.242 787.72 164.268 787.76 164.282C787.8 164.296 787.844 164.298 787.885 164.287C787.926 164.276 787.962 164.252 787.99 164.22L829.26 115.16C829.37 115.034 829.505 114.934 829.657 114.865C829.809 114.796 829.973 114.76 830.14 114.76H870.62C870.664 114.759 870.708 114.771 870.746 114.794C870.784 114.817 870.815 114.851 870.834 114.891C870.853 114.932 870.86 114.977 870.854 115.021C870.848 115.065 870.829 115.106 870.8 115.14Z" fill="black"/>
<path d="M476.62 153.24C476.62 172.6 471.07 190.85 460.41 206.9C445.24 229.76 418.85 241.88 391.49 241.98C373.217 242.04 350.303 242.043 322.75 241.99C322.654 241.99 322.561 241.951 322.492 241.882C322.423 241.813 322.383 241.719 322.38 241.62C322.373 226.327 322.373 196.853 322.38 153.2C322.393 109.547 322.407 80.0733 322.42 64.78C322.423 64.681 322.463 64.5869 322.532 64.5178C322.601 64.4487 322.694 64.41 322.79 64.41C350.343 64.37 373.257 64.3833 391.53 64.45C418.89 64.56 445.27 76.7 460.43 99.56C471.08 115.62 476.63 133.87 476.62 153.24ZM359.06 97.66L359.44 208.46C359.44 208.58 359.464 208.7 359.51 208.811C359.557 208.922 359.624 209.022 359.71 209.107C359.796 209.192 359.897 209.258 360.009 209.304C360.12 209.349 360.24 209.371 360.36 209.37L389.71 209.26C402.912 209.214 415.553 203.465 424.853 193.278C434.152 183.091 439.349 169.301 439.3 154.94L439.28 150.62C439.256 143.509 437.944 136.471 435.419 129.909C432.895 123.348 429.207 117.391 424.567 112.378C419.927 107.366 414.425 103.396 408.376 100.695C402.326 97.995 395.848 96.617 389.31 96.64L359.96 96.75C359.72 96.7526 359.491 96.8497 359.323 97.0201C359.154 97.1904 359.06 97.4204 359.06 97.66Z" fill="black"/>
<path d="M617.25 115.07C617.25 115.028 617.258 114.986 617.274 114.948C617.29 114.909 617.314 114.873 617.344 114.844C617.373 114.814 617.409 114.79 617.448 114.774C617.486 114.758 617.528 114.75 617.57 114.75H653.44C653.522 114.75 653.601 114.784 653.659 114.844C653.717 114.904 653.75 114.985 653.75 115.07V132.41C653.748 132.564 653.797 132.713 653.89 132.835C653.982 132.957 654.112 133.045 654.261 133.086C654.41 133.127 654.568 133.118 654.713 133.061C654.857 133.004 654.979 132.902 655.06 132.77C660.54 123.56 668.09 116.58 678.54 113.78C685.79 111.85 695.83 111.84 703.12 113.84C714.893 117.087 723.337 124.663 728.45 136.57C731.343 143.297 732.8 150.183 732.82 157.23C732.92 190.29 732.927 218.403 732.84 241.57C732.84 241.684 732.795 241.793 732.714 241.874C732.633 241.955 732.524 242 732.41 242H696.89C696.787 242 696.687 241.959 696.614 241.886C696.541 241.813 696.5 241.713 696.5 241.61C696.507 207.957 696.503 182.753 696.49 166C696.49 157.5 692.86 147.11 684.6 143.93C681.253 142.643 677.463 142.157 673.23 142.47C662.79 143.25 657.23 150.33 654.67 160.12C653.997 162.693 653.683 166.65 653.73 171.99C653.757 175.377 653.76 198.587 653.74 241.62C653.74 241.721 653.7 241.817 653.629 241.889C653.557 241.96 653.461 242 653.36 242H617.6C617.507 242 617.418 241.963 617.353 241.897C617.287 241.832 617.25 241.743 617.25 241.65V115.07Z" fill="black"/>
<path d="M524.05 114.75C524.093 114.75 524.136 114.759 524.176 114.775C524.216 114.792 524.253 114.816 524.283 114.847C524.314 114.877 524.338 114.914 524.355 114.954C524.371 114.994 524.38 115.037 524.38 115.08C524.367 138.02 524.37 164.913 524.39 195.76C524.39 197.967 524.997 200.65 526.21 203.81C528.15 208.87 532.14 212.47 537.51 213.73C543.19 215.07 550.74 214.66 555.55 210.8C563.1 204.74 565.01 195.86 565.01 186.5C565.003 155.273 565 131.563 565 115.37C565 115.206 565.065 115.048 565.182 114.932C565.298 114.815 565.456 114.75 565.62 114.75H600.8C600.951 114.75 601.096 114.81 601.203 114.917C601.31 115.024 601.37 115.169 601.37 115.32V241.56C601.37 241.677 601.324 241.789 601.241 241.871C601.159 241.954 601.047 242 600.93 242H565.66C565.496 242 565.339 241.936 565.221 241.823C565.104 241.709 565.035 241.554 565.03 241.39C565.01 240.743 564.997 235.283 564.99 225.01C564.99 224.717 564.94 224.487 564.84 224.32C564.769 224.204 564.67 224.107 564.551 224.04C564.433 223.973 564.299 223.937 564.163 223.936C564.027 223.935 563.892 223.969 563.773 224.035C563.653 224.1 563.553 224.195 563.48 224.31C559.893 229.977 555.393 234.707 549.98 238.5C542.58 243.68 532.71 244.95 523.69 244.27C509.45 243.19 499.307 236.707 493.26 224.82C489.927 218.267 488.24 210.757 488.2 202.29C488.113 186.257 488.097 157.227 488.15 115.2C488.15 115.081 488.196 114.966 488.279 114.882C488.361 114.797 488.473 114.75 488.59 114.75H524.05Z" fill="black"/>
<path d="M938.43 200.24C938.446 200.297 938.48 200.347 938.527 200.382C938.574 200.418 938.631 200.437 938.69 200.437C938.749 200.437 938.806 200.418 938.853 200.382C938.9 200.347 938.934 200.297 938.95 200.24L967.32 115.31C967.376 115.146 967.482 115.004 967.622 114.904C967.762 114.803 967.929 114.75 968.1 114.75H1003.69C1003.75 114.749 1003.81 114.764 1003.86 114.791C1003.92 114.818 1003.96 114.859 1004 114.908C1004.03 114.957 1004.05 115.014 1004.06 115.074C1004.07 115.133 1004.06 115.194 1004.04 115.25C984.1 168.603 968.807 209.58 958.16 238.18C955.033 246.593 951.393 254.1 947.24 260.7C937.74 275.82 924.26 284.763 906.8 287.53C896.72 289.13 886.73 289.25 876.83 287.89C876.738 287.878 876.654 287.832 876.593 287.762C876.532 287.692 876.499 287.603 876.5 287.51V259C876.5 258.936 876.513 258.874 876.538 258.815C876.564 258.757 876.602 258.705 876.649 258.663C876.696 258.62 876.752 258.588 876.812 258.569C876.873 258.549 876.937 258.543 877 258.55C883.913 259.25 890.56 259.2 896.94 258.4C907.113 257.127 914.6 252.19 919.4 243.59C919.488 243.433 919.54 243.259 919.554 243.08C919.568 242.9 919.543 242.719 919.48 242.55L872.86 115.3C872.838 115.239 872.83 115.173 872.839 115.108C872.847 115.043 872.871 114.981 872.908 114.927C872.945 114.873 872.995 114.829 873.053 114.798C873.11 114.767 873.175 114.751 873.24 114.75H908.56C908.729 114.75 908.894 114.804 909.032 114.905C909.17 115.005 909.274 115.147 909.33 115.31L938.43 200.24Z" fill="black"/>
</svg>
